# xmcd
#
# Track frame offsets:
#	150
#	6189
#	12056
#	17860
#	23671
#	34230
#	41644
#	49714
#	55338
#	65072
#	73024
#	84597
#	91102
#	98783
#	104844
#	110292
#	120602
#	129709
#	139748
#	148369
#	159254
#	166891
#	175040
#	182991
#	191877
#
# Disc length: 2714 seconds
#
# Revision: 1
# Processed by: cddbd v1.5.1PL0 Copyright (c) Steve Scherf et al.
# Submitted via: CDex 1.50Beta5
#
DISCID=5f0a9819
DTITLE=こども - ベストセレクションどうよう
DYEAR=1900
DGENRE=(Doyo)
TTITLE0=やぎさんゆうびん
TTITLE1=おつかいありさん
TTITLE2=げんこつやまのたぬきさん
TTITLE3=いとまき
TTITLE4=おもちゃのチャチャチャ
TTITLE5=いぬのおまわりさん
TTITLE6=こぶたぬきつねこ
TTITLE7=おうま
TTITLE8=きしゃぽっぽ
TTITLE9=かわいいかくれんぼ
TTITLE10=あかとんぼ
TTITLE11=かたつむり
TTITLE12=しゃぼんだま
TTITLE13=ぞうさん
TTITLE14=はと
TTITLE15=ちょうちょう
TTITLE16=５ひきのこぶたとチャールストン
TTITLE17=ぶんぶんぶん
TTITLE18=やまのおんがくか
TTITLE19=いっぽんでもにんじん
TTITLE20=とんとんともだち
TTITLE21=わらいかわせみにはなすなよ
TTITLE22=しまうまグルグル
TTITLE23=おにのパンツ
TTITLE24=ドレミのうた
EXTD=
EXTT0=
EXTT1=
EXTT2=
EXTT3=
EXTT4=
EXTT5=
EXTT6=
EXTT7=
EXTT8=
EXTT9=
EXTT10=
EXTT11=
EXTT12=
EXTT13=
EXTT14=
EXTT15=
EXTT16=
EXTT17=
EXTT18=
EXTT19=
EXTT20=
EXTT21=
EXTT22=
EXTT23=
EXTT24=
PLAYORDER=
